<?xml version="1.0" encoding="UTF-8" standalone="no"?>
<svg viewBox="-0.5 -0.5 961.0 721.0" preserveAspectRatio="xMidYMin meet" data-height="721.5" data-width="961.5" style="max-height:721.5px; max-width:961.5px" xmlns="http://www.w3.org/2000/svg">

<style type="text/css">

        g rect {        fill:#ffffff;        stroke-width:1.0;        stroke:#000001;    }

        .cx-c {        font-size:11.0px;        font-family:monospace;        pointer-events:none;        font-weight:bold;        fill:#000002;        text-anchor:start;    }

        .cx-a {        font-size:14.0px;        font-family:monospace;        text-anchor:middle;        pointer-events:none;        fill:#000003;    }
    
</style>
<g id="cx-0-20"><rect  x="600.0" y="0.0" width="30.0" height="30.0" /><text dy="1em"  class="cx-c" x="602.0" y="2.0" >1</text><text dy=".28em"  class="cx-a" x="615.0" y="15.0"></text></g><g id="cx-1-20"><rect  x="600.0" y="30.0" width="30.0" height="30.0" /><text dy=".28em"  class="cx-a" x="615.0" y="45.0"></text></g><g id="cx-2-20"><rect  x="600.0" y="60.0" width="30.0" height="30.0" /><text dy=".28em"  class="cx-a" x="615.0" y="75.0"></text></g><g id="cx-3-20"><rect  x="600.0" y="90.0" width="30.0" height="30.0" /><text dy=".28em"  class="cx-a" x="615.0" y="105.0"></text></g><g id="cx-4-20"><rect  x="600.0" y="120.0" width="30.0" height="30.0" /><text dy=".28em"  class="cx-a" x="615.0" y="135.0"></text></g><g id="cx-5-20"><rect  x="600.0" y="150.0" width="30.0" height="30.0" /><text dy=".28em"  class="cx-a" x="615.0" y="165.0"></text></g><g id="cx-5-30"><rect  x="900.0" y="150.0" width="30.0" height="30.0" /><text dy="1em"  class="cx-c" x="902.0" y="152.0" >2</text><text dy=".28em"  class="cx-a" x="915.0" y="165.0"></text></g><g id="cx-6-15"><rect  x="450.0" y="180.0" width="30.0" height="30.0" /><text dy="1em"  class="cx-c" x="452.0" y="182.0" >3</text><text dy=".28em"  class="cx-a" x="465.0" y="195.0"></text></g><g id="cx-6-20"><rect  x="600.0" y="180.0" width="30.0" height="30.0" /><text dy=".28em"  class="cx-a" x="615.0" y="195.0"></text></g><g id="cx-6-30"><rect  x="900.0" y="180.0" width="30.0" height="30.0" /><text dy=".28em"  class="cx-a" x="915.0" y="195.0"></text></g><g id="cx-7-13"><rect  x="390.0" y="210.0" width="30.0" height="30.0" /><text dy="1em"  class="cx-c" x="392.0" y="212.0" >4</text><text dy=".28em"  class="cx-a" x="405.0" y="225.0"></text></g><g id="cx-7-15"><rect  x="450.0" y="210.0" width="30.0" height="30.0" /><text dy=".28em"  class="cx-a" x="465.0" y="225.0"></text></g><g id="cx-7-20"><rect  x="600.0" y="210.0" width="30.0" height="30.0" /><text dy=".28em"  class="cx-a" x="615.0" y="225.0"></text></g><g id="cx-7-27"><rect  x="810.0" y="210.0" width="30.0" height="30.0" /><text dy="1em"  class="cx-c" x="812.0" y="212.0" >5</text><text dy=".28em"  class="cx-a" x="825.0" y="225.0"></text></g><g id="cx-7-30"><rect  x="900.0" y="210.0" width="30.0" height="30.0" /><text dy=".28em"  class="cx-a" x="915.0" y="225.0"></text></g><g id="cx-8-4"><rect  x="120.0" y="240.0" width="30.0" height="30.0" /><text dy="1em"  class="cx-c" x="122.0" y="242.0" >6</text><text dy=".28em"  class="cx-a" x="135.0" y="255.0"></text></g><g id="cx-8-13"><rect  x="390.0" y="240.0" width="30.0" height="30.0" /><text dy=".28em"  class="cx-a" x="405.0" y="255.0"></text></g><g id="cx-8-15"><rect  x="450.0" y="240.0" width="30.0" height="30.0" /><text dy=".28em"  class="cx-a" x="465.0" y="255.0"></text></g><g id="cx-8-20"><rect  x="600.0" y="240.0" width="30.0" height="30.0" /><text dy=".28em"  class="cx-a" x="615.0" y="255.0"></text></g><g id="cx-8-27"><rect  x="810.0" y="240.0" width="30.0" height="30.0" /><text dy=".28em"  class="cx-a" x="825.0" y="255.0"></text></g><g id="cx-8-30"><rect  x="900.0" y="240.0" width="30.0" height="30.0" /><text dy=".28em"  class="cx-a" x="915.0" y="255.0"></text></g><g id="cx-9-4"><rect  x="120.0" y="270.0" width="30.0" height="30.0" /><text dy=".28em"  class="cx-a" x="135.0" y="285.0"></text></g><g id="cx-9-13"><rect  x="390.0" y="270.0" width="30.0" height="30.0" /><text dy=".28em"  class="cx-a" x="405.0" y="285.0"></text></g><g id="cx-9-15"><rect  x="450.0" y="270.0" width="30.0" height="30.0" /><text dy=".28em"  class="cx-a" x="465.0" y="285.0"></text></g><g id="cx-9-20"><rect  x="600.0" y="270.0" width="30.0" height="30.0" /><text dy=".28em"  class="cx-a" x="615.0" y="285.0"></text></g><g id="cx-9-27"><rect  x="810.0" y="270.0" width="30.0" height="30.0" /><text dy=".28em"  class="cx-a" x="825.0" y="285.0"></text></g><g id="cx-9-30"><rect  x="900.0" y="270.0" width="30.0" height="30.0" /><text dy=".28em"  class="cx-a" x="915.0" y="285.0"></text></g><g id="cx-10-4"><rect  x="120.0" y="300.0" width="30.0" height="30.0" /><text dy=".28em"  class="cx-a" x="135.0" y="315.0"></text></g><g id="cx-10-7"><rect  x="210.0" y="300.0" width="30.0" height="30.0" /><text dy="1em"  class="cx-c" x="212.0" y="302.0" >7</text><text dy=".28em"  class="cx-a" x="225.0" y="315.0"></text></g><g id="cx-10-9"><rect  x="270.0" y="300.0" width="30.0" height="30.0" /><text dy="1em"  class="cx-c" x="272.0" y="302.0" >8</text><text dy=".28em"  class="cx-a" x="285.0" y="315.0"></text></g><g id="cx-10-13"><rect  x="390.0" y="300.0" width="30.0" height="30.0" /><text dy="1em"  class="cx-c" x="392.0" y="302.0" >9</text><text dy=".28em"  class="cx-a" x="405.0" y="315.0"></text></g><g id="cx-10-14"><rect  x="420.0" y="300.0" width="30.0" height="30.0" /><text dy=".28em"  class="cx-a" x="435.0" y="315.0"></text></g><g id="cx-10-15"><rect  x="450.0" y="300.0" width="30.0" height="30.0" /><text dy=".28em"  class="cx-a" x="465.0" y="315.0"></text></g><g id="cx-10-16"><rect  x="480.0" y="300.0" width="30.0" height="30.0" /><text dy="1em"  class="cx-c" x="482.0" y="302.0" >10</text><text dy=".28em"  class="cx-a" x="495.0" y="315.0"></text></g><g id="cx-10-17"><rect  x="510.0" y="300.0" width="30.0" height="30.0" /><text dy=".28em"  class="cx-a" x="525.0" y="315.0"></text></g><g id="cx-10-18"><rect  x="540.0" y="300.0" width="30.0" height="30.0" /><text dy=".28em"  class="cx-a" x="555.0" y="315.0"></text></g><g id="cx-10-19"><rect  x="570.0" y="300.0" width="30.0" height="30.0" /><text dy=".28em"  class="cx-a" x="585.0" y="315.0"></text></g><g id="cx-10-20"><rect  x="600.0" y="300.0" width="30.0" height="30.0" /><text dy=".28em"  class="cx-a" x="615.0" y="315.0"></text></g><g id="cx-10-21"><rect  x="630.0" y="300.0" width="30.0" height="30.0" /><text dy=".28em"  class="cx-a" x="645.0" y="315.0"></text></g><g id="cx-10-22"><rect  x="660.0" y="300.0" width="30.0" height="30.0" /><text dy=".28em"  class="cx-a" x="675.0" y="315.0"></text></g><g id="cx-10-23"><rect  x="690.0" y="300.0" width="30.0" height="30.0" /><text dy=".28em"  class="cx-a" x="705.0" y="315.0"></text></g><g id="cx-10-24"><rect  x="720.0" y="300.0" width="30.0" height="30.0" /><text dy=".28em"  class="cx-a" x="735.0" y="315.0"></text></g><g id="cx-10-25"><rect  x="750.0" y="300.0" width="30.0" height="30.0" /><text dy=".28em"  class="cx-a" x="765.0" y="315.0"></text></g><g id="cx-10-26"><rect  x="780.0" y="300.0" width="30.0" height="30.0" /><text dy=".28em"  class="cx-a" x="795.0" y="315.0"></text></g><g id="cx-10-27"><rect  x="810.0" y="300.0" width="30.0" height="30.0" /><text dy=".28em"  class="cx-a" x="825.0" y="315.0"></text></g><g id="cx-10-28"><rect  x="840.0" y="300.0" width="30.0" height="30.0" /><text dy=".28em"  class="cx-a" x="855.0" y="315.0"></text></g><g id="cx-10-30"><rect  x="900.0" y="300.0" width="30.0" height="30.0" /><text dy=".28em"  class="cx-a" x="915.0" y="315.0"></text></g><g id="cx-11-0"><rect  x="0.0" y="330.0" width="30.0" height="30.0" /><text dy="1em"  class="cx-c" x="2.0" y="332.0" >11</text><text dy=".28em"  class="cx-a" x="15.0" y="345.0"></text></g><g id="cx-11-1"><rect  x="30.0" y="330.0" width="30.0" height="30.0" /><text dy=".28em"  class="cx-a" x="45.0" y="345.0"></text></g><g id="cx-11-2"><rect  x="60.0" y="330.0" width="30.0" height="30.0" /><text dy=".28em"  class="cx-a" x="75.0" y="345.0"></text></g><g id="cx-11-3"><rect  x="90.0" y="330.0" width="30.0" height="30.0" /><text dy=".28em"  class="cx-a" x="105.0" y="345.0"></text></g><g id="cx-11-4"><rect  x="120.0" y="330.0" width="30.0" height="30.0" /><text dy=".28em"  class="cx-a" x="135.0" y="345.0"></text></g><g id="cx-11-5"><rect  x="150.0" y="330.0" width="30.0" height="30.0" /><text dy=".28em"  class="cx-a" x="165.0" y="345.0"></text></g><g id="cx-11-6"><rect  x="180.0" y="330.0" width="30.0" height="30.0" /><text dy=".28em"  class="cx-a" x="195.0" y="345.0"></text></g><g id="cx-11-7"><rect  x="210.0" y="330.0" width="30.0" height="30.0" /><text dy=".28em"  class="cx-a" x="225.0" y="345.0"></text></g><g id="cx-11-8"><rect  x="240.0" y="330.0" width="30.0" height="30.0" /><text dy=".28em"  class="cx-a" x="255.0" y="345.0"></text></g><g id="cx-11-9"><rect  x="270.0" y="330.0" width="30.0" height="30.0" /><text dy=".28em"  class="cx-a" x="285.0" y="345.0"></text></g><g id="cx-11-10"><rect  x="300.0" y="330.0" width="30.0" height="30.0" /><text dy=".28em"  class="cx-a" x="315.0" y="345.0"></text></g><g id="cx-11-13"><rect  x="390.0" y="330.0" width="30.0" height="30.0" /><text dy=".28em"  class="cx-a" x="405.0" y="345.0"></text></g><g id="cx-11-16"><rect  x="480.0" y="330.0" width="30.0" height="30.0" /><text dy=".28em"  class="cx-a" x="495.0" y="345.0"></text></g><g id="cx-11-27"><rect  x="810.0" y="330.0" width="30.0" height="30.0" /><text dy=".28em"  class="cx-a" x="825.0" y="345.0"></text></g><g id="cx-11-30"><rect  x="900.0" y="330.0" width="30.0" height="30.0" /><text dy=".28em"  class="cx-a" x="915.0" y="345.0"></text></g><g id="cx-12-4"><rect  x="120.0" y="360.0" width="30.0" height="30.0" /><text dy=".28em"  class="cx-a" x="135.0" y="375.0"></text></g><g id="cx-12-7"><rect  x="210.0" y="360.0" width="30.0" height="30.0" /><text dy=".28em"  class="cx-a" x="225.0" y="375.0"></text></g><rect x="240.0" y="360.0" width="30.0" height="30.0" fill="#000004" /><g id="cx-12-9"><rect  x="270.0" y="360.0" width="30.0" height="30.0" /><text dy=".28em"  class="cx-a" x="285.0" y="375.0"></text></g><g id="cx-12-13"><rect  x="390.0" y="360.0" width="30.0" height="30.0" /><text dy=".28em"  class="cx-a" x="405.0" y="375.0"></text></g><g id="cx-12-16"><rect  x="480.0" y="360.0" width="30.0" height="30.0" /><text dy=".28em"  class="cx-a" x="495.0" y="375.0"></text></g><g id="cx-12-27"><rect  x="810.0" y="360.0" width="30.0" height="30.0" /><text dy=".28em"  class="cx-a" x="825.0" y="375.0"></text></g><g id="cx-12-30"><rect  x="900.0" y="360.0" width="30.0" height="30.0" /><text dy=".28em"  class="cx-a" x="915.0" y="375.0"></text></g><g id="cx-13-5"><rect  x="150.0" y="390.0" width="30.0" height="30.0" /><text dy="1em"  class="cx-c" x="152.0" y="392.0" >12</text><text dy=".28em"  class="cx-a" x="165.0" y="405.0"></text></g><g id="cx-13-6"><rect  x="180.0" y="390.0" width="30.0" height="30.0" /><text dy=".28em"  class="cx-a" x="195.0" y="405.0"></text></g><g id="cx-13-7"><rect  x="210.0" y="390.0" width="30.0" height="30.0" /><text dy=".28em"  class="cx-a" x="225.0" y="405.0"></text></g><g id="cx-13-8"><rect  x="240.0" y="390.0" width="30.0" height="30.0" /><text dy=".28em"  class="cx-a" x="255.0" y="405.0"></text></g><g id="cx-13-9"><rect  x="270.0" y="390.0" width="30.0" height="30.0" /><text dy=".28em"  class="cx-a" x="285.0" y="405.0"></text></g><g id="cx-13-10"><rect  x="300.0" y="390.0" width="30.0" height="30.0" /><text dy=".28em"  class="cx-a" x="315.0" y="405.0"></text></g><g id="cx-13-11"><rect  x="330.0" y="390.0" width="30.0" height="30.0" /><text dy=".28em"  class="cx-a" x="345.0" y="405.0"></text></g><g id="cx-13-12"><rect  x="360.0" y="390.0" width="30.0" height="30.0" /><text dy=".28em"  class="cx-a" x="375.0" y="405.0"></text></g><g id="cx-13-13"><rect  x="390.0" y="390.0" width="30.0" height="30.0" /><text dy=".28em"  class="cx-a" x="405.0" y="405.0"></text></g><g id="cx-13-14"><rect  x="420.0" y="390.0" width="30.0" height="30.0" /><text dy=".28em"  class="cx-a" x="435.0" y="405.0"></text></g><g id="cx-13-16"><rect  x="480.0" y="390.0" width="30.0" height="30.0" /><text dy=".28em"  class="cx-a" x="495.0" y="405.0"></text></g><g id="cx-13-18"><rect  x="540.0" y="390.0" width="30.0" height="30.0" /><text dy="1em"  class="cx-c" x="542.0" y="392.0" >13</text><text dy=".28em"  class="cx-a" x="555.0" y="405.0"></text></g><g id="cx-13-19"><rect  x="570.0" y="390.0" width="30.0" height="30.0" /><text dy=".28em"  class="cx-a" x="585.0" y="405.0"></text></g><g id="cx-13-20"><rect  x="600.0" y="390.0" width="30.0" height="30.0" /><text dy=".28em"  class="cx-a" x="615.0" y="405.0"></text></g><g id="cx-13-21"><rect  x="630.0" y="390.0" width="30.0" height="30.0" /><text dy=".28em"  class="cx-a" x="645.0" y="405.0"></text></g><g id="cx-13-22"><rect  x="660.0" y="390.0" width="30.0" height="30.0" /><text dy=".28em"  class="cx-a" x="675.0" y="405.0"></text></g><g id="cx-13-23"><rect  x="690.0" y="390.0" width="30.0" height="30.0" /><text dy=".28em"  class="cx-a" x="705.0" y="405.0"></text></g><g id="cx-13-24"><rect  x="720.0" y="390.0" width="30.0" height="30.0" /><text dy=".28em"  class="cx-a" x="735.0" y="405.0"></text></g><g id="cx-13-25"><rect  x="750.0" y="390.0" width="30.0" height="30.0" /><text dy=".28em"  class="cx-a" x="765.0" y="405.0"></text></g><g id="cx-13-26"><rect  x="780.0" y="390.0" width="30.0" height="30.0" /><text dy=".28em"  class="cx-a" x="795.0" y="405.0"></text></g><g id="cx-13-27"><rect  x="810.0" y="390.0" width="30.0" height="30.0" /><text dy=".28em"  class="cx-a" x="825.0" y="405.0"></text></g><g id="cx-13-28"><rect  x="840.0" y="390.0" width="30.0" height="30.0" /><text dy=".28em"  class="cx-a" x="855.0" y="405.0"></text></g><g id="cx-13-29"><rect  x="870.0" y="390.0" width="30.0" height="30.0" /><text dy=".28em"  class="cx-a" x="885.0" y="405.0"></text></g><g id="cx-13-30"><rect  x="900.0" y="390.0" width="30.0" height="30.0" /><text dy=".28em"  class="cx-a" x="915.0" y="405.0"></text></g><g id="cx-13-31"><rect  x="930.0" y="390.0" width="30.0" height="30.0" /><text dy=".28em"  class="cx-a" x="945.0" y="405.0"></text></g><g id="cx-14-7"><rect  x="210.0" y="420.0" width="30.0" height="30.0" /><text dy=".28em"  class="cx-a" x="225.0" y="435.0"></text></g><rect x="240.0" y="420.0" width="30.0" height="30.0" fill="#000004" /><g id="cx-14-9"><rect  x="270.0" y="420.0" width="30.0" height="30.0" /><text dy=".28em"  class="cx-a" x="285.0" y="435.0"></text></g><g id="cx-14-13"><rect  x="390.0" y="420.0" width="30.0" height="30.0" /><text dy=".28em"  class="cx-a" x="405.0" y="435.0"></text></g><g id="cx-14-16"><rect  x="480.0" y="420.0" width="30.0" height="30.0" /><text dy=".28em"  class="cx-a" x="495.0" y="435.0"></text></g><g id="cx-14-18"><rect  x="540.0" y="420.0" width="30.0" height="30.0" /><text dy=".28em"  class="cx-a" x="555.0" y="435.0"></text></g><g id="cx-14-27"><rect  x="810.0" y="420.0" width="30.0" height="30.0" /><text dy=".28em"  class="cx-a" x="825.0" y="435.0"></text></g><g id="cx-14-30"><rect  x="900.0" y="420.0" width="30.0" height="30.0" /><text dy=".28em"  class="cx-a" x="915.0" y="435.0"></text></g><g id="cx-15-1"><rect  x="30.0" y="450.0" width="30.0" height="30.0" /><text dy="1em"  class="cx-c" x="32.0" y="452.0" >14</text><text dy=".28em"  class="cx-a" x="45.0" y="465.0"></text></g><g id="cx-15-2"><rect  x="60.0" y="450.0" width="30.0" height="30.0" /><text dy=".28em"  class="cx-a" x="75.0" y="465.0"></text></g><g id="cx-15-3"><rect  x="90.0" y="450.0" width="30.0" height="30.0" /><text dy=".28em"  class="cx-a" x="105.0" y="465.0"></text></g><g id="cx-15-4"><rect  x="120.0" y="450.0" width="30.0" height="30.0" /><text dy="1em"  class="cx-c" x="122.0" y="452.0" >15</text><text dy=".28em"  class="cx-a" x="135.0" y="465.0"></text></g><g id="cx-15-5"><rect  x="150.0" y="450.0" width="30.0" height="30.0" /><text dy=".28em"  class="cx-a" x="165.0" y="465.0"></text></g><g id="cx-15-6"><rect  x="180.0" y="450.0" width="30.0" height="30.0" /><text dy=".28em"  class="cx-a" x="195.0" y="465.0"></text></g><g id="cx-15-7"><rect  x="210.0" y="450.0" width="30.0" height="30.0" /><text dy=".28em"  class="cx-a" x="225.0" y="465.0"></text></g><g id="cx-15-8"><rect  x="240.0" y="450.0" width="30.0" height="30.0" /><text dy=".28em"  class="cx-a" x="255.0" y="465.0"></text></g><g id="cx-15-13"><rect  x="390.0" y="450.0" width="30.0" height="30.0" /><text dy=".28em"  class="cx-a" x="405.0" y="465.0"></text></g><g id="cx-15-16"><rect  x="480.0" y="450.0" width="30.0" height="30.0" /><text dy=".28em"  class="cx-a" x="495.0" y="465.0"></text></g><g id="cx-15-18"><rect  x="540.0" y="450.0" width="30.0" height="30.0" /><text dy=".28em"  class="cx-a" x="555.0" y="465.0"></text></g><g id="cx-15-22"><rect  x="660.0" y="450.0" width="30.0" height="30.0" /><text dy="1em"  class="cx-c" x="662.0" y="452.0" >16</text><text dy=".28em"  class="cx-a" x="675.0" y="465.0"></text></g><g id="cx-15-23"><rect  x="690.0" y="450.0" width="30.0" height="30.0" /><text dy=".28em"  class="cx-a" x="705.0" y="465.0"></text></g><g id="cx-15-24"><rect  x="720.0" y="450.0" width="30.0" height="30.0" /><text dy=".28em"  class="cx-a" x="735.0" y="465.0"></text></g><g id="cx-15-25"><rect  x="750.0" y="450.0" width="30.0" height="30.0" /><text dy=".28em"  class="cx-a" x="765.0" y="465.0"></text></g><g id="cx-15-26"><rect  x="780.0" y="450.0" width="30.0" height="30.0" /><text dy=".28em"  class="cx-a" x="795.0" y="465.0"></text></g><g id="cx-15-27"><rect  x="810.0" y="450.0" width="30.0" height="30.0" /><text dy=".28em"  class="cx-a" x="825.0" y="465.0"></text></g><g id="cx-16-4"><rect  x="120.0" y="480.0" width="30.0" height="30.0" /><text dy=".28em"  class="cx-a" x="135.0" y="495.0"></text></g><g id="cx-16-13"><rect  x="390.0" y="480.0" width="30.0" height="30.0" /><text dy=".28em"  class="cx-a" x="405.0" y="495.0"></text></g><g id="cx-16-16"><rect  x="480.0" y="480.0" width="30.0" height="30.0" /><text dy=".28em"  class="cx-a" x="495.0" y="495.0"></text></g><g id="cx-16-18"><rect  x="540.0" y="480.0" width="30.0" height="30.0" /><text dy=".28em"  class="cx-a" x="555.0" y="495.0"></text></g><g id="cx-17-4"><rect  x="120.0" y="510.0" width="30.0" height="30.0" /><text dy=".28em"  class="cx-a" x="135.0" y="525.0"></text></g><g id="cx-17-7"><rect  x="210.0" y="510.0" width="30.0" height="30.0" /><text dy="1em"  class="cx-c" x="212.0" y="512.0" >17</text><text dy=".28em"  class="cx-a" x="225.0" y="525.0"></text></g><g id="cx-17-16"><rect  x="480.0" y="510.0" width="30.0" height="30.0" /><text dy=".28em"  class="cx-a" x="495.0" y="525.0"></text></g><g id="cx-17-18"><rect  x="540.0" y="510.0" width="30.0" height="30.0" /><text dy=".28em"  class="cx-a" x="555.0" y="525.0"></text></g><g id="cx-18-1"><rect  x="30.0" y="540.0" width="30.0" height="30.0" /><text dy="1em"  class="cx-c" x="32.0" y="542.0" >18</text><text dy=".28em"  class="cx-a" x="45.0" y="555.0"></text></g><g id="cx-18-2"><rect  x="60.0" y="540.0" width="30.0" height="30.0" /><text dy=".28em"  class="cx-a" x="75.0" y="555.0"></text></g><g id="cx-18-3"><rect  x="90.0" y="540.0" width="30.0" height="30.0" /><text dy=".28em"  class="cx-a" x="105.0" y="555.0"></text></g><g id="cx-18-4"><rect  x="120.0" y="540.0" width="30.0" height="30.0" /><text dy=".28em"  class="cx-a" x="135.0" y="555.0"></text></g><g id="cx-18-5"><rect  x="150.0" y="540.0" width="30.0" height="30.0" /><text dy=".28em"  class="cx-a" x="165.0" y="555.0"></text></g><g id="cx-18-6"><rect  x="180.0" y="540.0" width="30.0" height="30.0" /><text dy=".28em"  class="cx-a" x="195.0" y="555.0"></text></g><g id="cx-18-7"><rect  x="210.0" y="540.0" width="30.0" height="30.0" /><text dy=".28em"  class="cx-a" x="225.0" y="555.0"></text></g><g id="cx-18-8"><rect  x="240.0" y="540.0" width="30.0" height="30.0" /><text dy=".28em"  class="cx-a" x="255.0" y="555.0"></text></g><g id="cx-18-9"><rect  x="270.0" y="540.0" width="30.0" height="30.0" /><text dy=".28em"  class="cx-a" x="285.0" y="555.0"></text></g><g id="cx-18-10"><rect  x="300.0" y="540.0" width="30.0" height="30.0" /><text dy=".28em"  class="cx-a" x="315.0" y="555.0"></text></g><g id="cx-18-11"><rect  x="330.0" y="540.0" width="30.0" height="30.0" /><text dy=".28em"  class="cx-a" x="345.0" y="555.0"></text></g><g id="cx-18-12"><rect  x="360.0" y="540.0" width="30.0" height="30.0" /><text dy=".28em"  class="cx-a" x="375.0" y="555.0"></text></g><g id="cx-18-13"><rect  x="390.0" y="540.0" width="30.0" height="30.0" /><text dy=".28em"  class="cx-a" x="405.0" y="555.0"></text></g><g id="cx-18-16"><rect  x="480.0" y="540.0" width="30.0" height="30.0" /><text dy=".28em"  class="cx-a" x="495.0" y="555.0"></text></g><g id="cx-18-18"><rect  x="540.0" y="540.0" width="30.0" height="30.0" /><text dy=".28em"  class="cx-a" x="555.0" y="555.0"></text></g><g id="cx-19-4"><rect  x="120.0" y="570.0" width="30.0" height="30.0" /><text dy=".28em"  class="cx-a" x="135.0" y="585.0"></text></g><g id="cx-19-7"><rect  x="210.0" y="570.0" width="30.0" height="30.0" /><text dy=".28em"  class="cx-a" x="225.0" y="585.0"></text></g><g id="cx-19-18"><rect  x="540.0" y="570.0" width="30.0" height="30.0" /><text dy=".28em"  class="cx-a" x="555.0" y="585.0"></text></g><g id="cx-20-4"><rect  x="120.0" y="600.0" width="30.0" height="30.0" /><text dy=".28em"  class="cx-a" x="135.0" y="615.0"></text></g><g id="cx-20-16"><rect  x="480.0" y="600.0" width="30.0" height="30.0" /><text dy="1em"  class="cx-c" x="482.0" y="602.0" >19</text><text dy=".28em"  class="cx-a" x="495.0" y="615.0"></text></g><g id="cx-20-17"><rect  x="510.0" y="600.0" width="30.0" height="30.0" /><text dy=".28em"  class="cx-a" x="525.0" y="615.0"></text></g><g id="cx-20-18"><rect  x="540.0" y="600.0" width="30.0" height="30.0" /><text dy=".28em"  class="cx-a" x="555.0" y="615.0"></text></g><g id="cx-20-19"><rect  x="570.0" y="600.0" width="30.0" height="30.0" /><text dy=".28em"  class="cx-a" x="585.0" y="615.0"></text></g><g id="cx-20-20"><rect  x="600.0" y="600.0" width="30.0" height="30.0" /><text dy=".28em"  class="cx-a" x="615.0" y="615.0"></text></g><g id="cx-20-21"><rect  x="630.0" y="600.0" width="30.0" height="30.0" /><text dy=".28em"  class="cx-a" x="645.0" y="615.0"></text></g><g id="cx-20-22"><rect  x="660.0" y="600.0" width="30.0" height="30.0" /><text dy=".28em"  class="cx-a" x="675.0" y="615.0"></text></g><g id="cx-21-18"><rect  x="540.0" y="630.0" width="30.0" height="30.0" /><text dy=".28em"  class="cx-a" x="555.0" y="645.0"></text></g><g id="cx-22-18"><rect  x="540.0" y="660.0" width="30.0" height="30.0" /><text dy=".28em"  class="cx-a" x="555.0" y="675.0"></text></g><g id="cx-23-18"><rect  x="540.0" y="690.0" width="30.0" height="30.0" /><text dy=".28em"  class="cx-a" x="555.0" y="705.0"></text></g></svg>